<?xml version="1.0" encoding="UTF-8"?>
<svg version="1.1" xmlns="http://www.w3.org/2000/svg" width="400" height="400">
<path d="M0 0 C1.23391228 -0.01058945 1.23391228 -0.01058945 2.49275208 -0.02139282 C36.44592663 -0.24667095 36.44592663 -0.24667095 51.171875 3.203125 C52.06503418 3.40180176 52.95819336 3.60047852 53.87841797 3.80517578 C80.05158526 9.7223948 105.43787555 20.28134731 127.171875 36.203125 C128.73228516 37.33814453 128.73228516 37.33814453 130.32421875 38.49609375 C137.93010108 44.13609215 144.93699192 50.32606186 151.77490234 56.86914062 C152.96618746 58.00671173 154.17117264 59.12990724 155.37890625 60.25 C187.35060068 90.72403868 210.20998236 140.36129218 211.33300781 184.46582031 C211.35254956 185.98756911 211.36630412 187.50940058 211.375 189.03125 C211.38205963 189.85385818 211.38911926 190.67646637 211.39639282 191.52400208 C211.62167095 225.47717663 211.62167095 225.47717663 208.171875 240.203125 C207.87385986 241.54286377 207.87385986 241.54286377 207.56982422 242.90966797 C201.6526052 269.08283526 191.09365269 294.46912555 175.171875 316.203125 C174.41519531 317.24339844 173.65851563 318.28367187 172.87890625 319.35546875 C167.23890785 326.96135108 161.04893814 333.96824192 154.50585938 340.80615234 C153.36828827 341.99743746 152.24509276 343.20242264 151.125 344.41015625 C120.65096132 376.38185068 71.01370782 399.24123236 26.90917969 400.36425781 C25.38743089 400.38379956 23.86559942 400.39755412 22.34375 400.40625 C21.10983772 400.41683945 21.10983772 400.41683945 19.85099792 400.42764282 C-14.10217663 400.65292095 -14.10217663 400.65292095 -28.828125 397.203125 C-30.16786377 396.90510986 -30.16786377 396.90510986 -31.53466797 396.60107422 C-57.70783526 390.6838552 -83.09412555 380.12490269 -104.828125 364.203125 C-105.86839844 363.44644531 -106.90867187 362.68976563 -107.98046875 361.91015625 C-115.58635108 356.27015785 -122.59324192 350.08018814 -129.43115234 343.53710938 C-130.62243746 342.39953827 -131.82742264 341.27634276 -133.03515625 340.15625 C-165.00685068 309.68221132 -187.86623236 260.04495782 -188.98925781 215.94042969 C-189.00879956 214.41868089 -189.02255412 212.89684942 -189.03125 211.375 C-189.03830963 210.55239182 -189.04536926 209.72978363 -189.05264282 208.88224792 C-189.27792095 174.92907337 -189.27792095 174.92907337 -185.828125 160.203125 C-185.62944824 159.30996582 -185.43077148 158.41680664 -185.22607422 157.49658203 C-179.3088552 131.32341474 -168.74990269 105.93712445 -152.828125 84.203125 C-152.07144531 83.16285156 -151.31476563 82.12257813 -150.53515625 81.05078125 C-144.89515785 73.44489892 -138.70518814 66.43800808 -132.16210938 59.60009766 C-131.02453827 58.40881254 -129.90134276 57.20382736 -128.78125 55.99609375 C-97.01652998 22.67028706 -45.85508406 0.26201706 0 0 Z " fill="#FDFDFD" transform="translate(188.828125,-0.203125)"/>
<path d="M0 0 C3.75163872 2.5337865 6.35498666 4.89699124 7.79296875 9.2109375 C8.48755407 16.46439281 8.71402008 22.61992117 4.22265625 28.62109375 C2.22443138 30.84316348 0.34474389 32.64061434 -2.20703125 34.2109375 C-3.52703125 34.2109375 -4.84703125 34.2109375 -6.20703125 34.2109375 C-6.20703125 40.8109375 -6.20703125 47.4109375 -6.20703125 54.2109375 C-4.22977051 54.20046387 -2.25250977 54.18999023 -0.21533203 54.17919922 C6.35042985 54.14682272 12.91617271 54.12391083 19.48199272 54.10731316 C23.45906955 54.09691886 27.43605924 54.08284017 31.41308594 54.06005859 C35.25806651 54.03817368 39.10296376 54.02633622 42.94800186 54.02118301 C44.40786168 54.01751513 45.86771744 54.01035348 47.32754135 53.99947739 C58.62679371 53.91871682 68.55992483 54.37205549 78.54296875 60.0234375 C79.16300781 60.35408203 79.78304687 60.68472656 80.421875 61.02539062 C92.27881803 67.5279878 100.0041795 78.14822984 104.13671875 90.87109375 C104.35328125 91.64324219 104.56984375 92.41539062 104.79296875 93.2109375 C104.96805214 93.82941968 105.14313553 94.44790186 105.32352448 95.08512592 C105.81386116 97.30554582 105.93552731 99.29157671 105.96032715 101.56376648 C105.97181793 102.42818359 105.98330872 103.29260071 105.99514771 104.18321228 C106.00625076 105.5943203 106.00625076 105.5943203 106.01757812 107.03393555 C106.0289682 108.03133759 106.04035828 109.02873962 106.05209351 110.05636597 C106.16300139 120.517087 106.21022839 130.97851204 106.25292969 141.43969727 C106.27512727 146.38927264 106.31678341 151.33808487 106.37597656 156.28735352 C106.44753374 162.28322759 106.48383202 168.2783886 106.49604797 174.27466774 C106.50637371 176.54660532 106.52861636 178.81852467 106.56364441 181.09021568 C106.82843677 199.21168544 104.53666171 214.07079088 92.03125 227.984375 C83.13504278 236.83400521 71.40348034 243.29981567 58.68034363 243.36483765 C57.42598511 243.37343811 56.17162659 243.38203857 54.8792572 243.39089966 C53.49136394 243.39533469 52.10347024 243.39963306 50.71557617 243.40380859 C49.25165616 243.41171397 47.78773808 243.41998319 46.32382202 243.42858887 C41.51537935 243.45477686 36.70692816 243.47012163 31.8984375 243.484375 C30.23830981 243.48973758 28.57818217 243.49511509 26.91805458 243.50050735 C20.00463076 243.52213878 13.09120922 243.54086948 6.17776012 243.55212975 C-3.69989346 243.56832743 -13.5771511 243.60139986 -23.45465547 243.65853059 C-30.41457313 243.69739847 -37.37438569 243.71678272 -44.33440894 243.72205031 C-48.48270535 243.72568321 -52.63057919 243.73748073 -56.7787571 243.77015305 C-60.69168808 243.80052884 -64.60394742 243.80644237 -68.51697159 243.79476929 C-69.94103836 243.79455093 -71.36513899 243.80265473 -72.78909492 243.82042313 C-89.39649536 244.01610471 -102.68139498 239.24005797 -114.95703125 227.8984375 C-125.38872579 216.8285687 -129.34833754 202.11718192 -129.36816406 187.23657227 C-129.37312897 186.3414946 -129.37809387 185.44641693 -129.38320923 184.5242157 C-129.39779497 181.56691714 -129.40462924 178.60967235 -129.41015625 175.65234375 C-129.41591356 173.58552551 -129.42167121 171.51870727 -129.4274292 169.45188904 C-129.43793102 165.1151403 -129.44377809 160.77841005 -129.44726562 156.44165039 C-129.45272843 150.91764137 -129.47671243 145.39388156 -129.50523758 139.86995029 C-129.52398269 135.59650492 -129.52907598 131.32311793 -129.5306015 127.04963493 C-129.53360519 125.01532578 -129.5415553 122.98101708 -129.55478668 120.94674873 C-129.67753672 100.61193504 -127.80285371 83.05702077 -112.96484375 67.6875 C-100.18359083 56.20971764 -84.81306294 53.56877626 -68.18359375 53.8203125 C-66.70145441 53.82779783 -65.21930499 53.83347988 -63.7371521 53.83746338 C-59.88683434 53.85254001 -56.03714628 53.89165941 -52.18707275 53.9362793 C-48.23808301 53.97762676 -44.28898881 53.99555753 -40.33984375 54.015625 C-32.62858959 54.05817738 -24.91797982 54.12837236 -17.20703125 54.2109375 C-17.20703125 47.6109375 -17.20703125 41.0109375 -17.20703125 34.2109375 C-19.18703125 33.5509375 -21.16703125 32.8909375 -23.20703125 32.2109375 C-27.8826555 27.42904907 -30.2494005 23.48790712 -30.51953125 16.8359375 C-30.36405887 11.62761277 -29.27792127 7.43011347 -25.625 3.515625 C-17.8904704 -3.46061738 -9.31605453 -5.24376722 0 0 Z " fill="#010101" transform="translate(211.20703125,63.7890625)"/>
<path d="M0 0 C6.00228163 3.59291506 10.49629812 8.86635305 13.21875 15.328125 C13.77663098 18.12265749 13.84039583 20.7971248 13.78125 23.640625 C13.76481445 24.75993408 13.76481445 24.75993408 13.74804688 25.90185547 C13.41519251 34.42477645 10.61391911 40.32939164 4.46875 46.265625 C-2.5678937 51.82155969 -9.7776343 52.97565782 -18.6328125 52.73828125 C-26.59860844 51.70055349 -32.93140833 46.53491719 -37.78125 40.328125 C-42.25550037 33.57703716 -43.11092471 26.24285539 -41.78125 18.328125 C-38.81516958 10.27221474 -34.62722626 3.2731112 -26.78125 -0.671875 C-18.03648409 -4.10518255 -8.55209802 -3.94285039 0 0 Z " fill="#F0F0F0" transform="translate(164.78125,172.671875)"/>
<path d="M0 0 C7.07024074 5.67208077 12.05753687 10.82944597 13.20703125 20.2265625 C13.28243957 29.83169772 12.46349723 36.9913495 5.94140625 44.44921875 C-0.11294281 50.28561125 -6.44683834 52.46093477 -14.76171875 52.83203125 C-20.32477156 52.66864089 -24.45115365 51.08694146 -29.26171875 48.39453125 C-30.33421875 47.85828125 -31.40671875 47.32203125 -32.51171875 46.76953125 C-37.87990212 42.13337289 -40.98476667 34.71094478 -41.5703125 27.69921875 C-42.14475225 13.32357927 -42.14475225 13.32357927 -37.1796875 7.26171875 C-27.69100752 -1.97573345 -12.59897654 -7.90578794 0 0 Z " fill="#F1F1F1" transform="translate(263.26171875,171.60546875)"/>
<path d="M0 0 C0 28.05 0 56.1 0 85 C-7.46032592 85 -12.34039891 84.0793188 -18.75 80.4375 C-25.30516762 73.33606841 -26.7450138 65.74990994 -26.59375 56.3671875 C-26.59379028 55.29050812 -26.59383057 54.21382874 -26.59387207 53.10452271 C-26.58854349 50.84387324 -26.57107613 48.58322256 -26.54199219 46.32275391 C-26.50002862 42.87734996 -26.50094188 39.43389865 -26.5078125 35.98828125 C-26.49732174 33.78123652 -26.48438425 31.57420178 -26.46875 29.3671875 C-26.46854858 28.34615936 -26.46834717 27.32513123 -26.46813965 26.27316284 C-26.35187025 19.19875893 -25.6553292 13.13269176 -20.9140625 7.5390625 C-20.15867187 6.90742188 -19.40328125 6.27578125 -18.625 5.625 C-17.87476563 4.97789062 -17.12453125 4.33078125 -16.3515625 3.6640625 C-10.51516224 -0.46601476 -7.80641204 0 0 0 Z " fill="#060606" transform="translate(72,164)"/>
<path d="M0 0 C8.10865559 0 13.88082112 0.59653196 19.875 6.3125 C26.04412664 12.70514572 26.45715939 18.94591011 26.43359375 27.42578125 C26.4388356 28.52794479 26.44407745 29.63010834 26.44947815 30.76567078 C26.45588895 33.09303955 26.45457359 35.42044076 26.44604492 37.74780273 C26.43755359 41.29014519 26.46628173 44.8308643 26.49804688 48.37304688 C26.49965963 50.64062452 26.49907995 52.908205 26.49609375 55.17578125 C26.50732773 56.2260701 26.51856171 57.27635895 26.53013611 58.35847473 C26.45491718 66.3848549 24.73639851 72.37829608 19.875 78.8125 C13.47569867 83.68153362 8.03310284 85 0 85 C0 56.95 0 28.9 0 0 Z " fill="#030303" transform="translate(328,164)"/>
<path d="M0 0 C6.10833118 4.46951062 6.10833118 4.46951062 7.5625 7.875 C8.42030324 14.76979585 8.88121823 21.12010425 4.5625 26.875 C-1.66835311 31.54813983 -6.77681107 32.735483 -14.4375 31.875 C-19.75315158 29.21717421 -23.53986008 25.56791975 -25.4375 19.875 C-25.95328753 14.96233521 -26.01194169 11.0459773 -23.8125 6.5625 C-22.636875 5.2321875 -22.636875 5.2321875 -21.4375 3.875 C-20.6125 2.92625 -19.7875 1.9775 -18.9375 1 C-13.69242739 -3.14788905 -5.94398837 -1.94530529 0 0 Z " fill="#060606" transform="translate(159.4375,182.125)"/>
<path d="M0 0 C4.62011196 0.10041323 7.28854487 0.86019983 10.75146484 3.91162109 C14.5563427 7.91415494 15.03269775 10.32735175 15.06396484 15.84912109 C15.07814453 16.97962891 15.09232422 18.11013672 15.10693359 19.27490234 C14.79970851 23.62291837 13.83455796 26.4188458 11.00146484 29.72412109 C6.26870826 33.76088406 2.04151659 34.13832106 -4.06884766 34.05615234 C-9.0624824 33.20685129 -12.03929116 30.42751352 -15.12353516 26.53662109 C-18.37023059 21.44545748 -18.05969859 15.31880699 -17.12353516 9.53662109 C-15.22080484 6.31362892 -12.9585282 3.95690293 -10.12353516 1.53662109 C-7.81405584 -0.77285822 -3.10889742 0.05523983 0 0 Z " fill="#040404" transform="translate(250.12353515625,179.46337890625)"/>
<path d="M0 0 C4.89415753 0.08438203 7.68876312 0.57879019 11.5625 3.5625 C17.38965975 7.50101509 24.27944079 7.07065959 31 6 C33.64830431 4.64735103 35.75463463 3.13546524 38.0625 1.2734375 C40.3270279 -0.21494172 41.35165829 -0.3112579 44 0.0625 C47 1 47 1 48 2 C48.55915724 6.00729357 48.20568811 7.67861232 46 11.125 C40.87060534 16.67698684 34.15038074 18.69087518 26.80078125 19.23828125 C15.68646423 19.47475608 7.67520231 17.53143966 -0.5625 9.80859375 C-2 8 -2 8 -2.625 4.6875 C-2 2 -2 2 0 0 Z " fill="#F0F0F0" transform="translate(174,238)"/>
</svg>
