<?xml version="1.0" encoding="UTF-8"?>
<svg version="1.1" xmlns="http://www.w3.org/2000/svg" width="500" height="500">
<path d="M0 0 C5.09003829 2.88976277 7.94581358 6.26879747 10.0625 11.8125 C11.35605742 18.51547934 11.42725904 24.41731272 7.4921875 30.234375 C3.95526163 34.71571563 2.68508554 35.39663815 -3.25 37.375 C-3.25 42.985 -3.25 48.595 -3.25 54.375 C-0.47372192 54.404729 -0.47372192 54.404729 2.35864258 54.43505859 C8.51340786 54.50317042 14.66801827 54.57996916 20.82260609 54.66252708 C24.54958783 54.71220974 28.27654501 54.75853906 32.00366211 54.796875 C35.6088736 54.83408596 39.2138642 54.88053602 42.8188839 54.93306351 C44.18575809 54.95141934 45.55267929 54.96659453 46.91962624 54.97834396 C65.21442797 55.14103998 79.74291738 58.34632472 93.5625 70.9375 C94.284375 71.741875 95.00625 72.54625 95.75 73.375 C96.595625 74.303125 97.44125 75.23125 98.3125 76.1875 C103.38651465 82.4385588 105.69844031 89.69145162 107.75 97.375 C107.92475231 97.99567824 108.09950462 98.61635649 108.27955246 99.25584316 C108.7627456 101.43241325 108.88123392 103.35131912 108.89044189 105.5783844 C108.89615204 106.4094017 108.90186218 107.24041901 108.90774536 108.09661865 C108.90942215 109.45173553 108.90942215 109.45173553 108.91113281 110.83422852 C108.91609772 111.79250046 108.92106262 112.7507724 108.92617798 113.73808289 C108.94078737 116.91003133 108.9476011 120.08192968 108.953125 123.25390625 C108.95887932 125.46386211 108.96463702 127.67381796 108.97039795 129.8837738 C108.98090575 134.52155794 108.98674925 139.15932477 108.99023438 143.79711914 C108.99570568 149.71940091 109.01970557 155.64145122 109.04820633 161.56366062 C109.06690083 166.13208161 109.07204203 170.70044774 109.07357025 175.26890373 C109.07658408 177.45082801 109.08456937 179.63275162 109.09775543 181.81463814 C109.11495152 184.87993669 109.11290222 187.94468158 109.10644531 191.01000977 C109.1156601 191.8992514 109.12487488 192.78849304 109.1343689 193.7046814 C109.07567226 202.67130968 106.86203832 210.93163296 102.6875 218.875 C102.18089844 219.8546875 101.67429687 220.834375 101.15234375 221.84375 C99.75 224.375 99.75 224.375 97.75 227.375 C97.09 227.375 96.43 227.375 95.75 227.375 C95.5025 227.973125 95.255 228.57125 95 229.1875 C93.56927475 231.69126919 92.1808418 232.85572388 89.75 234.375 C89.09 234.375 88.43 234.375 87.75 234.375 C87.75 235.035 87.75 235.695 87.75 236.375 C76.6788842 245.12193122 63.62399528 246.97754951 49.95458984 246.87670898 C48.5222572 246.88050313 47.08992825 246.88601211 45.65760803 246.89308167 C41.80842881 246.9069086 37.95970296 246.89595879 34.11054945 246.87937045 C30.05983194 246.86539878 26.00913754 246.87199349 21.95840454 246.87550354 C15.16164952 246.87819556 8.36507211 246.86481525 1.56835938 246.84155273 C-6.26444724 246.81492789 -14.09695756 246.81320649 -21.92979395 246.8249411 C-29.5004995 246.83575707 -37.07109896 246.82950332 -44.64179611 246.81538582 C-47.84806228 246.8096612 -51.05424991 246.80968064 -54.26051712 246.81445122 C-58.04134426 246.8192587 -61.82185096 246.80896522 -65.60261726 246.78749657 C-67.63405456 246.77937006 -69.66553407 246.78573766 -71.69697571 246.79269409 C-88.56038882 246.65725467 -101.82626796 241.05112831 -114.15625 229.60546875 C-123.69264529 219.67172365 -127.54685053 206.58737854 -127.55639648 193.16381836 C-127.56472 192.16115936 -127.57304352 191.15850037 -127.58161926 190.12545776 C-127.60564483 186.82187979 -127.61448396 183.51849975 -127.62109375 180.21484375 C-127.63006827 177.9042607 -127.63919026 175.59367822 -127.64845276 173.28309631 C-127.66492693 168.44042554 -127.67263958 163.59782374 -127.67553711 158.75512695 C-127.68090801 152.58082152 -127.7185423 146.4071743 -127.76428127 140.23305416 C-127.79418151 135.45862017 -127.80126354 130.68434189 -127.80226326 125.90982246 C-127.80644262 123.63546305 -127.81878391 121.36110219 -127.83978081 119.08683586 C-127.99239598 101.12123024 -126.34693466 85.13003508 -113.33984375 71.3515625 C-111.38112537 69.56807738 -109.3735286 67.95770483 -107.25 66.375 C-106.56164062 65.84132813 -105.87328125 65.30765625 -105.1640625 64.7578125 C-92.61070439 55.64869705 -78.61432599 55.24418713 -63.6875 55.05859375 C-62.28645264 55.03798596 -60.88541097 55.01698859 -59.484375 54.99562073 C-55.82172284 54.94079448 -52.1590183 54.89121366 -48.49627686 54.84277344 C-44.74877336 54.79226773 -41.00134461 54.73673442 -37.25390625 54.68164062 C-29.91933275 54.5745426 -22.5846955 54.47345866 -15.25 54.375 C-15.25 48.765 -15.25 43.155 -15.25 37.375 C-17.23 36.715 -19.21 36.055 -21.25 35.375 C-25.85468442 31.82309599 -28.1164469 27.37440471 -29.07421875 21.71484375 C-29.49326181 16.13691504 -28.9532142 11.3050423 -26.25 6.375 C-25.59 6.375 -24.93 6.375 -24.25 6.375 C-24.00378906 5.76140625 -23.75757813 5.1478125 -23.50390625 4.515625 C-19.03982614 -3.10529681 -7.19894821 -3.21453973 0 0 Z M22.75 113.375 C22.75 114.035 22.75 114.695 22.75 115.375 C22.09 115.375 21.43 115.375 20.75 115.375 C20.75 116.035 20.75 116.695 20.75 117.375 C20.09 117.375 19.43 117.375 18.75 117.375 C13.85910411 124.68427246 12.01236538 131.15239001 13.0546875 139.9453125 C14.73970479 147.30860724 19.06222367 152.55007519 24.75 157.375 C30.95123726 161.19417469 37.55893003 162.48989457 44.75 161.375 C51.55156916 159.42885758 57.53131644 156.76683703 61.515625 150.67578125 C65.57270907 142.50823042 67.96418021 136.32321627 65.6875 127.3125 C62.76662944 118.83934396 57.74591591 113.34738466 49.75 109.375 C40.23239641 106.20246547 30.86370216 107.96586522 22.75 113.375 Z M-73.25 113.375 C-74.3225 114.138125 -75.395 114.90125 -76.5 115.6875 C-82.03680033 121.09846396 -85.2156908 127.84812529 -85.625 135.625 C-85.41746177 143.32985693 -82.17527384 150.29488297 -76.9609375 155.90625 C-71.0889993 160.9470006 -64.27059813 162.69352761 -56.6875 162.59375 C-49.68754662 161.96554906 -42.48948127 159.14539626 -37.84375 153.73828125 C-31.8828308 145.74995639 -31.43195776 138.09831224 -32.25 128.375 C-34.20589069 120.84423526 -40.30735393 114.90744995 -46.8125 110.9375 C-55.22844245 107.14786509 -65.78980942 108.04131234 -73.25 113.375 Z M-35.25 178.375 C-35.25 179.035 -35.25 179.695 -35.25 180.375 C-35.91 180.375 -36.57 180.375 -37.25 180.375 C-37.01471784 183.55130909 -36.07465037 184.55484577 -33.8125 186.875 C-25.96969081 193.0277123 -15.99619263 195.17644903 -6.25 194.375 C-0.54734022 193.13410123 4.08920465 190.92608217 8.75 187.375 C9.389375 186.92125 10.02875 186.4675 10.6875 186 C12.07369301 184.25027215 12.07369301 184.25027215 11.4375 181.1875 C11.210625 180.259375 10.98375 179.33125 10.75 178.375 C8.50124253 177.50649826 8.50124253 177.50649826 5.75 177.375 C3.13118166 179.15331634 3.13118166 179.15331634 0.75 181.375 C-4.65261659 184.64005959 -11.80392427 185.12326164 -17.89453125 183.80078125 C-20.05268105 183.0670819 -22.13984323 182.23437836 -24.25 181.375 C-25.57773307 181.02001581 -26.90992571 180.6801062 -28.25 180.375 C-28.25 179.715 -28.25 179.055 -28.25 178.375 C-31.83327753 177.37282936 -31.83327753 177.37282936 -35.25 178.375 Z " fill="#070707" transform="translate(259.25,127.625)"/>
<path d="M0 0 C7.98995488 -0.07138861 14.43835011 1.03442711 21 6 C27.50242866 13.42864669 28.31535426 20.64602252 28.3359375 30.2421875 C28.3425943 31.32452667 28.3492511 32.40686584 28.35610962 33.52200317 C28.36621274 35.80648098 28.37092737 38.09098816 28.37060547 40.37548828 C28.37497651 43.85629259 28.4113168 47.33582617 28.44921875 50.81640625 C28.45508792 53.04166236 28.45905664 55.26692445 28.4609375 57.4921875 C28.47530853 58.52576385 28.48967957 59.55934021 28.50448608 60.62423706 C28.45757622 68.10348069 26.99575976 73.44410869 22.140625 79.20703125 C16.42842761 84.05767821 11.61175721 86.77068208 4.0625 87.25 C1 87 1 87 0 86 C-0.09512944 83.32212027 -0.12555279 80.67011131 -0.11352539 77.99194336 C-0.11367142 77.15299026 -0.11381744 76.31403717 -0.1139679 75.44966125 C-0.1132685 72.66302956 -0.10547485 69.87646384 -0.09765625 67.08984375 C-0.09579217 65.16313209 -0.09436822 63.23641995 -0.09336853 61.30970764 C-0.08954259 56.22812603 -0.07971166 51.1465728 -0.06866455 46.06500244 C-0.05845206 40.88383366 -0.05387126 35.70266031 -0.04882812 30.52148438 C-0.03808946 20.34764375 -0.02101213 10.17382423 0 0 Z " fill="#141414" transform="translate(377,229)"/>
<path d="M0 0 C-0.33 28.71 -0.66 57.42 -1 87 C-8.84368143 87 -14.35286469 86.1980704 -20.34765625 80.94140625 C-27.35970506 73.39486371 -28.31390271 67.03700023 -28.3359375 57.01171875 C-28.3425943 55.9539473 -28.3492511 54.89617584 -28.35610962 53.80635071 C-28.36621242 51.57314791 -28.37092738 49.33991508 -28.37060547 47.10668945 C-28.374972 43.70928588 -28.41130002 40.31318908 -28.44921875 36.91601562 C-28.45508889 34.73958774 -28.45905696 32.56315373 -28.4609375 30.38671875 C-28.47530853 29.38017746 -28.48967957 28.37363617 -28.50448608 27.33659363 C-28.45346058 19.3678043 -26.78914285 13.20751428 -21.5 7.125 C-20.2625 6.073125 -20.2625 6.073125 -19 5 C-18.401875 4.443125 -17.80375 3.88625 -17.1875 3.3125 C-11.60466712 -0.03719973 -6.38800118 0 0 0 Z " fill="#0C0C0C" transform="translate(123,229)"/>
<path d="M0 0 C3.29276724 3.19066593 5.89690328 6.2209821 6.16796875 10.8984375 C6.17763672 12.61933594 6.17763672 12.61933594 6.1875 14.375 C6.20167969 15.51710938 6.21585937 16.65921875 6.23046875 17.8359375 C6.01170034 20.83936816 5.57080637 22.47925934 4 25 C3.34 25 2.68 25 2 25 C1.814375 25.598125 1.62875 26.19625 1.4375 26.8125 C-0.66531458 30.01243523 -3.43370594 31.02610044 -7 32 C-13.35474466 32.70608274 -17.69617337 31.60660211 -23 28 C-26.67522291 24.42149348 -28.04795364 21.01988081 -29 16 C-28.75571378 9.15998573 -26.39924186 4.27927977 -21.5 -0.375 C-14.73047518 -4.77519113 -6.81910041 -3.85986816 0 0 Z " fill="#171717" transform="translate(310,248)"/>
<path d="M0 0 C3.88292499 2.18897963 6.90536283 4.77986535 8.26171875 9.171875 C9.43552112 15.07319332 9.62176493 20.45572155 6.5 25.75 C3.17614029 30.34229643 0.01457484 32.2483051 -5.5625 33.1875 C-10.61530972 33.58330343 -14.83144479 32.68789432 -19.3125 30.3125 C-24.14407277 25.99492434 -25.67549873 21.5836677 -26.3125 15.3125 C-26.3125 9.72955597 -24.70941491 6.76052046 -20.9765625 2.82421875 C-14.85074665 -2.74078297 -7.39221503 -3.38637784 0 0 Z " fill="#151515" transform="translate(209.3125,247.6875)"/>
<path d="M0 0 C0 0.99 0 1.98 0 3 C-23.43 3 -46.86 3 -71 3 C-71 2.67 -71 2.34 -71 2 C-63.65440317 0.86995237 -56.36791541 0.78000062 -48.9453125 0.68359375 C-47.59389678 0.66297977 -46.24248687 0.64198228 -44.89108276 0.62062073 C-41.35743006 0.56580217 -37.82372294 0.5162289 -34.28997803 0.46777344 C-30.68285255 0.41733409 -27.07580701 0.36172326 -23.46875 0.30664062 C-3.20559433 0 -3.20559433 0 0 0 Z " fill="#989898" transform="translate(244,182)"/>
<path d="M0 0 C0.99 0.33 1.98 0.66 3 1 C2.21625 1.2475 1.4325 1.495 0.625 1.75 C-2.42295608 3.20140766 -2.72536664 3.99550707 -4 7 C-5.5 8.75 -5.5 8.75 -7 10 C-7.66 10 -8.32 10 -9 10 C-7.02955353 5.40229157 -4.12362307 2.74908205 0 0 Z " fill="#8F8F8F" transform="translate(108,231)"/>
<path d="M0 0 C0 0.66 0 1.32 0 2 C-5.47619048 7 -5.47619048 7 -8 7 C-6.47663111 3.31852519 -4.31953005 0 0 0 Z " fill="#656565" transform="translate(194,248)"/>
</svg>
